<mxfile host="app.diagrams.net" modified="2022-03-01T07:52:50.585Z" agent="5.0 (Windows NT 10.0; Win64; x64) AppleWebKit/537.36 (KHTML, like Gecko) Chrome/98.0.4758.102 Safari/537.36" etag="KzInItUpAxMuhPEOMEvB" version="16.6.4" type="github">
  <diagram id="kgpKYQtTHZ0yAKxKKP6v" name="Page-1">
    <mxGraphModel dx="1209" dy="638" grid="1" gridSize="10" guides="1" tooltips="1" connect="1" arrows="1" fold="1" page="1" pageScale="1" pageWidth="850" pageHeight="1100" math="0" shadow="0">
      <root>
        <mxCell id="0" />
        <mxCell id="1" parent="0" />
        <mxCell id="3nuBFxr9cyL0pnOWT2aG-1" value="Press a button" style="shape=table;childLayout=tableLayout;startSize=40;collapsible=0;recursiveResize=0;expand=0;fillColor=none;fontStyle=1" parent="1" vertex="1">
          <mxGeometry x="100" y="99" width="670" height="700" as="geometry" />
        </mxCell>
        <mxCell id="3nuBFxr9cyL0pnOWT2aG-3" value="GPIO Extenser" style="shape=tableRow;horizontal=0;swimlaneHead=0;swimlaneBody=0;top=0;left=0;bottom=0;right=0;fillColor=none;points=[[0,0.5],[1,0.5]];portConstraint=eastwest;startSize=40;collapsible=0;recursiveResize=0;expand=0;fontStyle=1;" parent="3nuBFxr9cyL0pnOWT2aG-1" vertex="1">
          <mxGeometry y="40" width="670" height="260" as="geometry" />
        </mxCell>
        <mxCell id="3nuBFxr9cyL0pnOWT2aG-4" value="press button" style="swimlane;swimlaneHead=0;swimlaneBody=0;connectable=0;fillColor=none;startSize=40;collapsible=0;recursiveResize=0;expand=0;fontStyle=1;" parent="3nuBFxr9cyL0pnOWT2aG-3" vertex="1">
          <mxGeometry x="40" width="260" height="260" as="geometry">
            <mxRectangle width="260" height="260" as="alternateBounds" />
          </mxGeometry>
        </mxCell>
        <mxCell id="3nuBFxr9cyL0pnOWT2aG-5" style="edgeStyle=orthogonalEdgeStyle;rounded=0;orthogonalLoop=1;jettySize=auto;html=1;" parent="3nuBFxr9cyL0pnOWT2aG-4" source="3nuBFxr9cyL0pnOWT2aG-6" target="3nuBFxr9cyL0pnOWT2aG-7" edge="1">
          <mxGeometry relative="1" as="geometry" />
        </mxCell>
        <mxCell id="3nuBFxr9cyL0pnOWT2aG-6" value="Electrical state to on" style="rounded=1;whiteSpace=wrap;html=1;arcSize=50;" parent="3nuBFxr9cyL0pnOWT2aG-4" vertex="1">
          <mxGeometry x="20" y="60" width="90" height="40" as="geometry" />
        </mxCell>
        <mxCell id="3nuBFxr9cyL0pnOWT2aG-7" value="GPIOEXT in change to 0" style="rounded=0;whiteSpace=wrap;html=1;" parent="3nuBFxr9cyL0pnOWT2aG-4" vertex="1">
          <mxGeometry x="20" y="120" width="90" height="40" as="geometry" />
        </mxCell>
        <mxCell id="3nuBFxr9cyL0pnOWT2aG-17" value="Interupt on change" style="rounded=0;whiteSpace=wrap;html=1;" parent="3nuBFxr9cyL0pnOWT2aG-4" vertex="1">
          <mxGeometry x="20" y="190" width="90" height="40" as="geometry" />
        </mxCell>
        <mxCell id="3nuBFxr9cyL0pnOWT2aG-2" value="" style="edgeStyle=orthogonalEdgeStyle;rounded=0;orthogonalLoop=1;jettySize=auto;html=1;" parent="3nuBFxr9cyL0pnOWT2aG-4" source="3nuBFxr9cyL0pnOWT2aG-7" target="3nuBFxr9cyL0pnOWT2aG-17" edge="1">
          <mxGeometry relative="1" as="geometry" />
        </mxCell>
        <mxCell id="3nuBFxr9cyL0pnOWT2aG-8" value="realease button" style="swimlane;swimlaneHead=0;swimlaneBody=0;connectable=0;fillColor=none;startSize=40;collapsible=0;recursiveResize=0;expand=0;fontStyle=0;" parent="3nuBFxr9cyL0pnOWT2aG-3" vertex="1">
          <mxGeometry x="300" width="200" height="260" as="geometry">
            <mxRectangle width="200" height="260" as="alternateBounds" />
          </mxGeometry>
        </mxCell>
        <mxCell id="zlHDXsmYykdXce315KwK-48" value="" style="edgeStyle=orthogonalEdgeStyle;rounded=0;orthogonalLoop=1;jettySize=auto;html=1;" edge="1" parent="3nuBFxr9cyL0pnOWT2aG-8" source="zlHDXsmYykdXce315KwK-46" target="zlHDXsmYykdXce315KwK-47">
          <mxGeometry relative="1" as="geometry" />
        </mxCell>
        <mxCell id="zlHDXsmYykdXce315KwK-46" value="Electrical state to off" style="rounded=1;whiteSpace=wrap;html=1;arcSize=50;" vertex="1" parent="3nuBFxr9cyL0pnOWT2aG-8">
          <mxGeometry x="70" y="60" width="90" height="40" as="geometry" />
        </mxCell>
        <mxCell id="zlHDXsmYykdXce315KwK-50" value="" style="edgeStyle=orthogonalEdgeStyle;rounded=0;orthogonalLoop=1;jettySize=auto;html=1;" edge="1" parent="3nuBFxr9cyL0pnOWT2aG-8" source="zlHDXsmYykdXce315KwK-47" target="zlHDXsmYykdXce315KwK-49">
          <mxGeometry relative="1" as="geometry" />
        </mxCell>
        <mxCell id="zlHDXsmYykdXce315KwK-47" value="GPIOEXT in change to 1" style="rounded=0;whiteSpace=wrap;html=1;" vertex="1" parent="3nuBFxr9cyL0pnOWT2aG-8">
          <mxGeometry x="70" y="122" width="90" height="40" as="geometry" />
        </mxCell>
        <mxCell id="zlHDXsmYykdXce315KwK-49" value="Interupt on change" style="rounded=0;whiteSpace=wrap;html=1;" vertex="1" parent="3nuBFxr9cyL0pnOWT2aG-8">
          <mxGeometry x="70" y="191" width="90" height="40" as="geometry" />
        </mxCell>
        <mxCell id="3nuBFxr9cyL0pnOWT2aG-11" value="being informed(LED)" style="swimlane;swimlaneHead=0;swimlaneBody=0;connectable=0;fillColor=none;startSize=40;collapsible=0;recursiveResize=0;expand=0;fontStyle=1;" parent="3nuBFxr9cyL0pnOWT2aG-3" vertex="1">
          <mxGeometry x="500" width="170" height="260" as="geometry">
            <mxRectangle width="170" height="260" as="alternateBounds" />
          </mxGeometry>
        </mxCell>
        <mxCell id="3nuBFxr9cyL0pnOWT2aG-15" value="Peripheral card" style="shape=tableRow;horizontal=0;swimlaneHead=0;swimlaneBody=0;top=0;left=0;bottom=0;right=0;fillColor=none;points=[[0,0.5],[1,0.5]];portConstraint=eastwest;startSize=40;collapsible=0;recursiveResize=0;expand=0;fontStyle=1;" parent="3nuBFxr9cyL0pnOWT2aG-1" vertex="1">
          <mxGeometry y="300" width="670" height="210" as="geometry" />
        </mxCell>
        <mxCell id="3nuBFxr9cyL0pnOWT2aG-16" value="" style="swimlane;swimlaneHead=0;swimlaneBody=0;connectable=0;fillColor=none;startSize=0;collapsible=0;recursiveResize=0;expand=0;fontStyle=1;" parent="3nuBFxr9cyL0pnOWT2aG-15" vertex="1">
          <mxGeometry x="40" width="260" height="210" as="geometry">
            <mxRectangle width="260" height="210" as="alternateBounds" />
          </mxGeometry>
        </mxCell>
        <mxCell id="zlHDXsmYykdXce315KwK-26" value="" style="edgeStyle=orthogonalEdgeStyle;rounded=0;orthogonalLoop=1;jettySize=auto;html=1;" edge="1" parent="3nuBFxr9cyL0pnOWT2aG-16" source="zlHDXsmYykdXce315KwK-21" target="zlHDXsmYykdXce315KwK-25">
          <mxGeometry relative="1" as="geometry" />
        </mxCell>
        <mxCell id="zlHDXsmYykdXce315KwK-21" value="Interupt lauch GPIOReadTask" style="rounded=0;whiteSpace=wrap;html=1;" vertex="1" parent="3nuBFxr9cyL0pnOWT2aG-16">
          <mxGeometry x="20" y="30" width="90" height="40" as="geometry" />
        </mxCell>
        <mxCell id="zlHDXsmYykdXce315KwK-35" value="" style="edgeStyle=orthogonalEdgeStyle;rounded=0;orthogonalLoop=1;jettySize=auto;html=1;" edge="1" parent="3nuBFxr9cyL0pnOWT2aG-16" source="zlHDXsmYykdXce315KwK-25" target="zlHDXsmYykdXce315KwK-34">
          <mxGeometry relative="1" as="geometry" />
        </mxCell>
        <mxCell id="zlHDXsmYykdXce315KwK-25" value="Button change" style="rhombus;whiteSpace=wrap;html=1;rounded=0;" vertex="1" parent="3nuBFxr9cyL0pnOWT2aG-16">
          <mxGeometry x="25" y="90" width="80" height="50" as="geometry" />
        </mxCell>
        <mxCell id="zlHDXsmYykdXce315KwK-27" value="END" style="ellipse;whiteSpace=wrap;html=1;rounded=0;" vertex="1" parent="3nuBFxr9cyL0pnOWT2aG-16">
          <mxGeometry x="22.5" y="170" width="85" height="25" as="geometry" />
        </mxCell>
        <mxCell id="zlHDXsmYykdXce315KwK-28" value="" style="edgeStyle=orthogonalEdgeStyle;rounded=0;orthogonalLoop=1;jettySize=auto;html=1;" edge="1" parent="3nuBFxr9cyL0pnOWT2aG-16" source="zlHDXsmYykdXce315KwK-25" target="zlHDXsmYykdXce315KwK-27">
          <mxGeometry relative="1" as="geometry" />
        </mxCell>
        <mxCell id="zlHDXsmYykdXce315KwK-29" value="no" style="edgeLabel;html=1;align=center;verticalAlign=middle;resizable=0;points=[];" vertex="1" connectable="0" parent="zlHDXsmYykdXce315KwK-28">
          <mxGeometry x="0.3467" y="1" relative="1" as="geometry">
            <mxPoint as="offset" />
          </mxGeometry>
        </mxCell>
        <mxCell id="zlHDXsmYykdXce315KwK-37" value="" style="edgeStyle=orthogonalEdgeStyle;rounded=0;orthogonalLoop=1;jettySize=auto;html=1;" edge="1" parent="3nuBFxr9cyL0pnOWT2aG-16" source="zlHDXsmYykdXce315KwK-34" target="zlHDXsmYykdXce315KwK-36">
          <mxGeometry relative="1" as="geometry" />
        </mxCell>
        <mxCell id="zlHDXsmYykdXce315KwK-34" value="publisch change on topic" style="whiteSpace=wrap;html=1;rounded=0;" vertex="1" parent="3nuBFxr9cyL0pnOWT2aG-16">
          <mxGeometry x="160" y="82.5" width="80" height="65" as="geometry" />
        </mxCell>
        <mxCell id="zlHDXsmYykdXce315KwK-36" value="Broker update" style="whiteSpace=wrap;html=1;rounded=0;" vertex="1" parent="3nuBFxr9cyL0pnOWT2aG-16">
          <mxGeometry x="160" y="241.5" width="80" height="65" as="geometry" />
        </mxCell>
        <mxCell id="3nuBFxr9cyL0pnOWT2aG-18" value="" style="swimlane;swimlaneHead=0;swimlaneBody=0;connectable=0;fillColor=none;startSize=0;collapsible=0;recursiveResize=0;expand=0;fontStyle=1;" parent="3nuBFxr9cyL0pnOWT2aG-15" vertex="1">
          <mxGeometry x="300" width="200" height="210" as="geometry">
            <mxRectangle width="200" height="210" as="alternateBounds" />
          </mxGeometry>
        </mxCell>
        <mxCell id="3nuBFxr9cyL0pnOWT2aG-23" value="" style="swimlane;swimlaneHead=0;swimlaneBody=0;connectable=0;fillColor=none;startSize=0;collapsible=0;recursiveResize=0;expand=0;fontStyle=1;" parent="3nuBFxr9cyL0pnOWT2aG-15" vertex="1">
          <mxGeometry x="500" width="170" height="210" as="geometry">
            <mxRectangle width="170" height="210" as="alternateBounds" />
          </mxGeometry>
        </mxCell>
        <mxCell id="zlHDXsmYykdXce315KwK-16" value="PLC" style="shape=tableRow;horizontal=0;swimlaneHead=0;swimlaneBody=0;top=0;left=0;bottom=0;right=0;fillColor=none;points=[[0,0.5],[1,0.5]];portConstraint=eastwest;startSize=40;collapsible=0;recursiveResize=0;expand=0;fontStyle=1;" vertex="1" parent="3nuBFxr9cyL0pnOWT2aG-1">
          <mxGeometry y="510" width="670" height="190" as="geometry" />
        </mxCell>
        <mxCell id="zlHDXsmYykdXce315KwK-17" style="swimlane;swimlaneHead=0;swimlaneBody=0;connectable=0;fillColor=none;startSize=0;collapsible=0;recursiveResize=0;expand=0;fontStyle=1;" vertex="1" parent="zlHDXsmYykdXce315KwK-16">
          <mxGeometry x="40" width="260" height="190" as="geometry">
            <mxRectangle width="260" height="190" as="alternateBounds" />
          </mxGeometry>
        </mxCell>
        <mxCell id="zlHDXsmYykdXce315KwK-38" value="sync with local variabels" style="whiteSpace=wrap;html=1;rounded=0;" vertex="1" parent="zlHDXsmYykdXce315KwK-17">
          <mxGeometry x="160" y="122" width="80" height="65" as="geometry" />
        </mxCell>
        <mxCell id="zlHDXsmYykdXce315KwK-18" style="swimlane;swimlaneHead=0;swimlaneBody=0;connectable=0;fillColor=none;startSize=0;collapsible=0;recursiveResize=0;expand=0;fontStyle=1;" vertex="1" parent="zlHDXsmYykdXce315KwK-16">
          <mxGeometry x="300" width="200" height="190" as="geometry">
            <mxRectangle width="200" height="190" as="alternateBounds" />
          </mxGeometry>
        </mxCell>
        <mxCell id="zlHDXsmYykdXce315KwK-19" style="swimlane;swimlaneHead=0;swimlaneBody=0;connectable=0;fillColor=none;startSize=0;collapsible=0;recursiveResize=0;expand=0;fontStyle=1;" vertex="1" parent="zlHDXsmYykdXce315KwK-16">
          <mxGeometry x="500" width="170" height="190" as="geometry">
            <mxRectangle width="170" height="190" as="alternateBounds" />
          </mxGeometry>
        </mxCell>
        <mxCell id="zlHDXsmYykdXce315KwK-39" value="" style="edgeStyle=orthogonalEdgeStyle;rounded=0;orthogonalLoop=1;jettySize=auto;html=1;" edge="1" parent="3nuBFxr9cyL0pnOWT2aG-1" source="zlHDXsmYykdXce315KwK-36" target="zlHDXsmYykdXce315KwK-38">
          <mxGeometry relative="1" as="geometry" />
        </mxCell>
        <mxCell id="zlHDXsmYykdXce315KwK-22" value="" style="edgeStyle=orthogonalEdgeStyle;rounded=0;orthogonalLoop=1;jettySize=auto;html=1;" edge="1" parent="3nuBFxr9cyL0pnOWT2aG-1" source="3nuBFxr9cyL0pnOWT2aG-17" target="zlHDXsmYykdXce315KwK-21">
          <mxGeometry relative="1" as="geometry" />
        </mxCell>
      </root>
    </mxGraphModel>
  </diagram>
</mxfile>
